<svg viewBox="0 0 16 16" width="16" height="16" class="sc-AykKK btrElB"><path fill-rule="evenodd" clip-rule="evenodd" d="M7.4412 0.161475C7.79311 -0.0144798 8.20733 -0.0144803 8.55924 0.161475L15.0002 3.38197C15.9215 3.84262 15.9215 5.15738 15.0002 5.61803L8.55924 8.83853C8.20733 9.01448 7.79311 9.01448 7.4412 8.83853L1.00022 5.61803C0.0789053 5.15738 0.078912 3.84262 1.00022 3.38197L7.4412 0.161475ZM8.00022 2.11803L3.23629 4.5L8.00022 6.88197L12.7642 4.5L8.00022 2.11803Z"></path><path fill-rule="evenodd" clip-rule="evenodd" d="M0.105792 7.55279C0.352781 7.05881 0.953454 6.85858 1.44743 7.10557L8.00022 10.382L14.553 7.10557C15.047 6.85858 15.6477 7.05881 15.8946 7.55279C16.1416 8.04677 15.9414 8.64744 15.4474 8.89443L8.55924 12.3385C8.20733 12.5145 7.79311 12.5145 7.4412 12.3385L0.553005 8.89443C0.059027 8.64744 -0.141197 8.04677 0.105792 7.55279Z"></path><path fill-rule="evenodd" clip-rule="evenodd" d="M0.105792 11.0528C0.352781 10.5588 0.953454 10.3586 1.44743 10.6056L8.00022 13.882L14.553 10.6056C15.047 10.3586 15.6477 10.5588 15.8946 11.0528C16.1416 11.5468 15.9414 12.1474 15.4474 12.3944L8.55924 15.8385C8.20733 16.0145 7.79311 16.0145 7.4412 15.8385L0.553005 12.3944C0.059027 12.1474 -0.141197 11.5468 0.105792 11.0528Z"></path></svg>
